<svg width="25" height="23" viewBox="0 0 25 23" fill="none" xmlns="http://www.w3.org/2000/svg">
<path d="M23.7042 0.417813C23.4612 -0.119296 22.7667 -0.140781 22.4759 0.366251C21.1304 2.68227 18.7216 4.12602 15.9698 4.12602H12.4976C7.89693 4.12602 4.16429 7.82133 4.16429 12.376C4.16429 12.6768 4.19901 12.9647 4.2294 13.2569C6.99849 11.2932 10.9959 9.62602 16.6643 9.62602C17.0462 9.62602 17.3587 9.93539 17.3587 10.3135C17.3587 10.6916 17.0462 11.001 16.6643 11.001C5.75283 11.001 1.1261 17.6225 0.101792 20.1104C-0.184666 20.8108 0.153875 21.61 0.861341 21.8979C1.57315 22.1901 2.38044 21.8506 2.67558 21.1545C2.74068 20.9998 3.5827 19.0963 5.79624 17.2616C7.20249 19.1479 9.8761 20.9483 13.3874 20.5788C20.2016 20.0889 24.9976 14.0389 24.9976 6.63109C24.9976 4.47406 24.5289 2.23969 23.7042 0.417813Z" fill="#009D5C"/>
</svg>
