<svg width="24" height="23" viewBox="0 0 24 23" fill="none" xmlns="http://www.w3.org/2000/svg">
<path d="M6.90838 10.3638C6.98532 10.2821 7.07761 10.2163 7.17997 10.1703C7.28233 10.1242 7.39276 10.0988 7.50496 10.0954C7.61716 10.092 7.72892 10.1108 7.83386 10.1506C7.9388 10.1904 8.03487 10.2505 8.11658 10.3275C12.0494 14.0322 15.9955 16.2863 20.6393 17.4352C21.2658 15.726 21.3214 13.8448 20.7803 12.0095C20.0624 9.57438 18.3906 7.45282 15.9469 5.87446C13.7655 4.46543 11.5852 4.09848 9.47595 3.74382C6.81491 3.29622 4.30129 2.87319 1.90251 0.333396C1.63545 0.0524434 1.27171 -0.0602581 0.923987 0.0310782C0.526594 0.137904 0.260063 0.451973 0.132406 0.971148C-0.166707 2.18629 0.0255801 5.59191 0.866835 9.18714C2.21765 14.9632 4.3734 17.886 5.94428 19.3212C7.97397 21.1741 10.6243 22.2002 13.2581 22.2002C13.7546 22.2009 14.2504 22.1645 14.7414 22.0912C16.9693 21.7536 18.8238 20.6346 19.8691 19.0066C15.0891 17.7631 11.0057 15.3985 6.9431 11.5736C6.86124 11.4966 6.7954 11.4041 6.74934 11.3015C6.70328 11.199 6.67791 11.0883 6.67468 10.9759C6.67146 10.8636 6.69044 10.7516 6.73054 10.6466C6.77065 10.5416 6.83108 10.4455 6.90838 10.3638ZM23.257 17.9586C22.3581 17.8203 21.4875 17.6467 20.6398 17.4368C20.4655 17.9126 20.2487 18.3716 19.9919 18.8084C19.9529 18.8752 19.9118 18.9414 19.8696 19.0066C20.9006 19.2735 21.9446 19.4874 22.9975 19.6475C23.1095 19.6672 23.2243 19.6644 23.3352 19.6391C23.4461 19.6138 23.5509 19.5667 23.6433 19.5004C23.7358 19.4341 23.8141 19.35 23.8736 19.2531C23.9331 19.1562 23.9727 19.0484 23.99 18.9359C24.0074 18.8235 24.0021 18.7088 23.9744 18.5984C23.9468 18.4881 23.8975 18.3843 23.8293 18.2933C23.761 18.2023 23.6753 18.1258 23.5772 18.0683C23.479 18.0109 23.3703 17.9736 23.2576 17.9586H23.257Z" fill="#009D5C"/>
</svg>
