<svg width="62" height="62" viewBox="0 0 62 62" fill="none" xmlns="http://www.w3.org/2000/svg">
<path d="M31.1342 23.2877C26.7613 23.2877 23.1927 26.8563 23.1927 31.2291C23.1927 35.602 26.7613 39.1706 31.1342 39.1706C35.507 39.1706 39.0756 35.602 39.0756 31.2291C39.0756 26.8563 35.507 23.2877 31.1342 23.2877ZM54.9526 31.2291C54.9526 27.9405 54.9824 24.6817 54.7977 21.3991C54.613 17.5863 53.7432 14.2024 50.9551 11.4142C48.1609 8.62012 44.783 7.75627 40.9701 7.57159C37.6816 7.3869 34.4228 7.41669 31.1401 7.41669C27.8516 7.41669 24.5928 7.3869 21.3101 7.57159C17.4973 7.75627 14.1134 8.62608 11.3252 11.4142C8.53113 14.2083 7.66728 17.5863 7.4826 21.3991C7.29791 24.6877 7.3277 27.9465 7.3277 31.2291C7.3277 34.5117 7.29791 37.7765 7.4826 41.0591C7.66728 44.872 8.53709 48.2559 11.3252 51.044C14.1193 53.8381 17.4973 54.702 21.3101 54.8867C24.5987 55.0713 27.8575 55.0416 31.1401 55.0416C34.4287 55.0416 37.6875 55.0713 40.9701 54.8867C44.783 54.702 48.1669 53.8322 50.9551 51.044C53.7492 48.2499 54.613 44.872 54.7977 41.0591C54.9883 37.7765 54.9526 34.5177 54.9526 31.2291ZM31.1342 43.4481C24.3723 43.4481 18.9152 37.991 18.9152 31.2291C18.9152 24.4673 24.3723 19.0101 31.1342 19.0101C37.896 19.0101 43.3532 24.4673 43.3532 31.2291C43.3532 37.991 37.896 43.4481 31.1342 43.4481ZM43.8536 21.3634C42.2749 21.3634 40.9999 20.0885 40.9999 18.5097C40.9999 16.9309 42.2749 15.656 43.8536 15.656C45.4324 15.656 46.7073 16.9309 46.7073 18.5097C46.7078 18.8846 46.6343 19.2559 46.491 19.6023C46.3478 19.9487 46.1376 20.2635 45.8725 20.5286C45.6074 20.7937 45.2927 21.0039 44.9462 21.1471C44.5998 21.2904 44.2285 21.3638 43.8536 21.3634Z" fill="#F8F8F8"/>
</svg>
