<svg width="62" height="62" viewBox="0 0 62 62" fill="none" xmlns="http://www.w3.org/2000/svg">
<path d="M30.6873 3.81287C15.9482 3.81287 3.99731 15.7638 3.99731 30.5028C3.99731 45.2418 15.9482 57.1927 30.6873 57.1927C45.4263 57.1927 57.3772 45.2418 57.3772 30.5028C57.3772 15.7638 45.4263 3.81287 30.6873 3.81287ZM43.5139 23.9316C43.5318 24.2116 43.5318 24.5035 43.5318 24.7895C43.5318 33.5352 36.8712 43.6095 24.6999 43.6095C20.9466 43.6095 17.4674 42.5192 14.5363 40.6426C15.0724 40.7022 15.5848 40.726 16.1329 40.726C19.2308 40.726 22.0786 39.6775 24.3484 37.9021C21.4411 37.8425 18.9985 35.9361 18.1644 33.3148C19.1832 33.4637 20.1006 33.4637 21.1492 33.1956C19.6522 32.8915 18.3067 32.0785 17.3412 30.8947C16.3757 29.7109 15.8498 28.2294 15.8529 26.7019V26.6185C16.7287 27.1129 17.7593 27.4168 18.8376 27.4585C17.9311 26.8543 17.1877 26.0359 16.6733 25.0756C16.1589 24.1154 15.8894 23.043 15.8886 21.9537C15.8886 20.7205 16.2103 19.5945 16.7882 18.6174C18.4498 20.6629 20.5232 22.3358 22.8737 23.5275C25.2241 24.7191 27.7991 25.4028 30.4311 25.5342C29.4957 21.0362 32.8558 17.3961 36.8951 17.3961C38.8015 17.3961 40.5173 18.1945 41.7266 19.4813C43.222 19.2013 44.6518 18.6413 45.9267 17.8906C45.4323 19.4217 44.3956 20.7145 43.0194 21.5307C44.3539 21.3877 45.6408 21.0183 46.8323 20.5C45.9327 21.8226 44.8067 22.9963 43.5139 23.9316Z" fill="#F8F8F8"/>
</svg>
