<svg width="56" height="57" viewBox="0 0 56 57" fill="none" xmlns="http://www.w3.org/2000/svg">
<path d="M28.0391 1.29724C13.2142 1.29724 1.19666 13.3148 1.19666 28.1397C1.19666 42.9646 13.2142 54.9822 28.0391 54.9822C42.864 54.9822 54.8816 42.9646 54.8816 28.1397C54.8816 13.3148 42.864 1.29724 28.0391 1.29724ZM21.4683 39.2653H16.0327V21.773H21.4683V39.2653ZM18.717 19.6256C17.0002 19.6256 15.8901 18.4093 15.8901 16.905C15.8901 15.37 17.0337 14.19 18.7869 14.19C20.54 14.19 21.6137 15.37 21.6473 16.905C21.6473 18.4093 20.54 19.6256 18.717 19.6256ZM41.3205 39.2653H35.8849V29.5713C35.8849 27.3149 35.0964 25.7826 33.1308 25.7826C31.6293 25.7826 30.7373 26.82 30.3431 27.8182C30.1977 28.1733 30.1613 28.6766 30.1613 29.1771V39.2625H24.723V27.3512C24.723 25.1675 24.6531 23.3416 24.5804 21.7702H29.3029L29.5518 24.2H29.6608C30.3766 23.0592 32.1298 21.376 35.0629 21.376C38.6391 21.376 41.3205 23.7722 41.3205 28.9226V39.2653Z" fill="#F8F8F8"/>
</svg>
